<svg xmlns="http://www.w3.org/2000/svg" viewBox="0 0 1280 900">
  <rect width="1280" height="900" fill="#5A2309"/><circle cx="1120" cy="110" r="350" fill="#F26A1B" opacity=".3"/>
  <text x="90" y="125" fill="#FFD3A4" font-family="Arial,sans-serif" font-size="27" font-weight="700" letter-spacing="4">LARAVEL + WHATSAPP API</text><text x="90" y="235" fill="#FFF8EE" font-family="Arial,sans-serif" font-size="76" font-weight="800">Renewal Flow</text><text x="90" y="292" fill="#EAC2A5" font-family="Arial,sans-serif" font-size="28">Напоминания о продлении и контроль доставки</text>
  <g transform="translate(90 360)" font-family="Arial"><rect width="1100" height="430" rx="34" fill="#FFF1DF"/><g transform="translate(42 35)"><rect width="1016" height="92" rx="20" fill="#FFF8EE"/><text x="28" y="39" fill="#936A4F" font-size="19">Кампания</text><text x="28" y="71" fill="#3A1908" font-size="27" font-weight="700">Продление услуги</text><rect x="812" y="22" width="170" height="50" rx="15" fill="#F26A1B"/><text x="845" y="55" fill="#FFF8EE" font-size="20" font-weight="700">Запустить</text></g>
  <g transform="translate(42 151)"><rect width="316" height="220" rx="22" fill="#FFF8EE"/><text x="24" y="41" fill="#936A4F" font-size="19">Сегмент</text><text x="24" y="101" fill="#3A1908" font-size="52" font-weight="700">128</text><text x="24" y="144" fill="#936A4F" font-size="18">клиентов</text><rect x="24" y="171" width="114" height="31" rx="10" fill="#FFD3A4"/><text x="40" y="193" fill="#B94308" font-size="17">90 / 30 / 7</text></g>
  <g transform="translate(382 151)"><rect width="316" height="220" rx="22" fill="#FFF8EE"/><text x="24" y="41" fill="#936A4F" font-size="19">Доставлено</text><text x="24" y="101" fill="#3A1908" font-size="52" font-weight="700">93%</text><rect x="24" y="139" width="268" height="16" rx="8" fill="#FFD3A4"/><rect x="24" y="139" width="249" height="16" rx="8" fill="#F26A1B"/><text x="24" y="190" fill="#4F7D54" font-size="19">Статусы получены</text></g>
  <g transform="translate(722 151)"><rect width="336" height="220" rx="22" fill="#FFF8EE"/><text x="24" y="41" fill="#936A4F" font-size="19">Безопасность</text><text x="24" y="88" fill="#3A1908" font-size="23" font-weight="700">Лимиты и отписки</text><text x="24" y="128" fill="#936A4F" font-size="18">Тихие часы</text><text x="24" y="160" fill="#936A4F" font-size="18">Webhook-статусы</text><text x="24" y="192" fill="#936A4F" font-size="18">Журнал кампаний</text></g></g>
</svg>
